<svg width="32" height="32" viewBox="0 0 32 32" fill="none" xmlns="http://www.w3.org/2000/svg">
  <!-- Background with gradient -->
  <defs>
    <linearGradient id="bgGradient" x1="0%" y1="0%" x2="100%" y2="100%">
      <stop offset="0%" style="stop-color:#8B5CF6;stop-opacity:1" />
      <stop offset="100%" style="stop-color:#3B82F6;stop-opacity:1" />
    </linearGradient>
    <linearGradient id="chartGradient" x1="0%" y1="0%" x2="100%" y2="100%">
      <stop offset="0%" style="stop-color:#10B981;stop-opacity:1" />
      <stop offset="100%" style="stop-color:#059669;stop-opacity:1" />
    </linearGradient>
  </defs>
  
  <!-- Background -->
  <rect width="32" height="32" rx="6" fill="url(#bgGradient)"/>
  
  <!-- Dashboard base -->
  <rect x="4" y="8" width="24" height="16" rx="2" fill="white" fill-opacity="0.9"/>
  
  <!-- Chart bars -->
  <rect x="6" y="20" width="2" height="6" fill="url(#chartGradient)"/>
  <rect x="9" y="18" width="2" height="8" fill="url(#chartGradient)"/>
  <rect x="12" y="16" width="2" height="10" fill="url(#chartGradient)"/>
  <rect x="15" y="14" width="2" height="12" fill="url(#chartGradient)"/>
  <rect x="18" y="12" width="2" height="14" fill="url(#chartGradient)"/>
  <rect x="21" y="10" width="2" height="16" fill="url(#chartGradient)"/>
  
  <!-- Chart line -->
  <path d="M6 22 L9 20 L12 18 L15 16 L18 14 L21 12 L24 10" stroke="#EF4444" stroke-width="1.5" fill="none"/>
  
  <!-- Data points -->
  <circle cx="6" cy="22" r="1" fill="#EF4444"/>
  <circle cx="9" cy="20" r="1" fill="#EF4444"/>
  <circle cx="12" cy="18" r="1" fill="#EF4444"/>
  <circle cx="15" cy="16" r="1" fill="#EF4444"/>
  <circle cx="18" cy="14" r="1" fill="#EF4444"/>
  <circle cx="21" cy="12" r="1" fill="#EF4444"/>
  <circle cx="24" cy="10" r="1" fill="#EF4444"/>
  
  <!-- Grid lines -->
  <line x1="6" y1="10" x2="24" y2="10" stroke="white" stroke-width="0.5" opacity="0.3"/>
  <line x1="6" y1="14" x2="24" y2="14" stroke="white" stroke-width="0.5" opacity="0.3"/>
  <line x1="6" y1="18" x2="24" y2="18" stroke="white" stroke-width="0.5" opacity="0.3"/>
  <line x1="6" y1="22" x2="24" y2="22" stroke="white" stroke-width="0.5" opacity="0.3"/>
</svg>